<svg xmlns="http://www.w3.org/2000/svg">
				<path class="fill-white opacity-4" d="m496 22.999c0 10.493-8.506 18.999-18.999 18.999s-19-8.506-19-18.999 8.507-18.999 19-18.999 18.999 8.506 18.999 18.999z"/>
				<path class="fill-white opacity-4" d="m775 102.5c0 5.799-4.701 10.5-10.5 10.5-5.798 0-10.499-4.701-10.499-10.5 0-5.798 4.701-10.499 10.499-10.499 5.799 0 10.5 4.701 10.5 10.499z"/>
				<path class="fill-white opacity-4" d="m192 102c0 6.626-5.373 11.999-12 11.999s-11.999-5.373-11.999-11.999c0-6.628 5.372-12 11.999-12s12 5.372 12 12z"/>
				<path class="fill-white opacity-4" d="m20.499 10.25c0 5.66-4.589 10.249-10.25 10.249-5.66 0-10.249-4.589-10.249-10.249-0-5.661 4.589-10.25 10.249-10.25 5.661-0 10.25 4.589 10.25 10.25z"/>
			</svg>