<svg xmlns="http://www.w3.org/2000/svg" class="rotate-74 fill-danger opacity-1">
			<circle cx="180.4" cy="15.5" r="7.7"/>
			<path d="m159.9 22.4c-3.8 0-6.9-3.1-6.9-6.9s3.1-6.9 6.9-6.9 6.9 3.1 6.9 6.9-3.1 6.9-6.9 6.9z"/>
			<ellipse transform="matrix(.3862 -.9224 .9224 .3862 71.25 138.08)" cx="139.4" cy="15.5" rx="6.1" ry="6.1"/>
			<circle cx="118.9" cy="15.5" r="5.4"/>
			<path d="m98.4 20.1c-2.5 0-4.6-2.1-4.6-4.6s2.1-4.6 4.6-4.6 4.6 2.1 4.6 4.6-2.1 4.6-4.6 4.6z"/>
			<path d="m77.9 19.3c-2.1 0-3.8-1.7-3.8-3.8s1.7-3.8 3.8-3.8 3.8 1.7 3.8 3.8-1.7 3.8-3.8 3.8z"/>
			<path d="m57.3 18.6c-1.7 0-3.1-1.4-3.1-3.1s1.4-3.1 3.1-3.1 3.1 1.4 3.1 3.1-1.4 3.1-3.1 3.1z"/>
			<path d="m36.8 17.8c-1.3 0-2.3-1-2.3-2.3s1-2.3 2.3-2.3 2.3 1 2.3 2.3-1 2.3-2.3 2.3z"/>
			<circle cx="16.3" cy="15.5" r="1.6"/>
			<circle cx="180.4" cy="38.5" r="7.7"/>
			<path d="m159.9 45.3c-3.8 0-6.9-3.1-6.9-6.9s3.1-6.9 6.9-6.9 6.9 3.1 6.9 6.9-3.1 6.9-6.9 6.9z"/>
			<ellipse transform="matrix(.8486 -.5291 .5291 .8486 .7599 79.566)" cx="139.4" cy="38.5" rx="6.1" ry="6.1"/>
			<circle cx="118.9" cy="38.5" r="5.4"/>
			<path d="m98.4 43.1c-2.5 0-4.6-2.1-4.6-4.6s2.1-4.6 4.6-4.6 4.6 2.1 4.6 4.6-2.1 4.6-4.6 4.6z"/>
			<circle cx="77.9" cy="38.5" r="3.8"/>
			<path d="m57.3 41.5c-1.7 0-3.1-1.4-3.1-3.1s1.4-3.1 3.1-3.1 3.1 1.4 3.1 3.1c0 1.8-1.4 3.1-3.1 3.1z"/>
			<path d="m36.8 40.8c-1.3 0-2.3-1-2.3-2.3s1-2.3 2.3-2.3 2.3 1 2.3 2.3-1 2.3-2.3 2.3z"/>
			<circle cx="16.3" cy="38.5" r="1.6"/>
			<circle cx="180.4" cy="61.4" r="7.7"/>
			<path d="m159.9 68.3c-3.8 0-6.9-3.1-6.9-6.9s3.1-6.9 6.9-6.9 6.9 3.1 6.9 6.9-3.1 6.9-6.9 6.9z"/>
			<ellipse transform="matrix(.3862 -.9224 .9224 .3862 28.902 166.26)" cx="139.4" cy="61.4" rx="6.1" ry="6.1"/>
			<circle cx="118.9" cy="61.4" r="5.4"/>
			<path d="m98.4 66c-2.5 0-4.6-2.1-4.6-4.6s2.1-4.6 4.6-4.6 4.6 2.1 4.6 4.6c0 2.6-2.1 4.6-4.6 4.6z"/>
			<path d="m77.9 65.2c-2.1 0-3.8-1.7-3.8-3.8s1.7-3.8 3.8-3.8 3.8 1.7 3.8 3.8-1.7 3.8-3.8 3.8z"/>
			<path d="m57.3 64.5c-1.7 0-3.1-1.4-3.1-3.1s1.4-3.1 3.1-3.1 3.1 1.4 3.1 3.1-1.4 3.1-3.1 3.1z"/>
			<path d="m36.8 63.7c-1.3 0-2.3-1-2.3-2.3s1-2.3 2.3-2.3 2.3 1 2.3 2.3-1 2.3-2.3 2.3z"/>
			<circle cx="16.3" cy="61.4" r="1.6"/>
			<circle cx="180.4" cy="84.4" r="7.7"/>
			<path d="m159.9 91.3c-3.8 0-6.9-3.1-6.9-6.9s3.1-6.9 6.9-6.9 6.9 3.1 6.9 6.9-3.1 6.9-6.9 6.9z"/>
			<path d="m139.4 90.5c-3.4 0-6.1-2.7-6.1-6.1s2.7-6.1 6.1-6.1 6.1 2.7 6.1 6.1c0 3.3-2.7 6.1-6.1 6.1z"/>
			<circle cx="118.9" cy="84.4" r="5.4"/>
			<path d="m98.4 89c-2.5 0-4.6-2.1-4.6-4.6s2.1-4.6 4.6-4.6 4.6 2.1 4.6 4.6-2.1 4.6-4.6 4.6z"/>
			<path d="m77.9 88.2c-2.1 0-3.8-1.7-3.8-3.8s1.7-3.8 3.8-3.8 3.8 1.7 3.8 3.8-1.7 3.8-3.8 3.8z"/>
			<path d="m57.3 87.4c-1.7 0-3.1-1.4-3.1-3.1s1.4-3.1 3.1-3.1 3.1 1.4 3.1 3.1c0 1.8-1.4 3.1-3.1 3.1z"/>
			<path d="m36.8 86.7c-1.3 0-2.3-1-2.3-2.3s1-2.3 2.3-2.3 2.3 1 2.3 2.3-1 2.3-2.3 2.3z"/>
			<circle cx="16.3" cy="84.4" r="1.6"/>
			<circle cx="180.4" cy="107.3" r="7.7"/>
			<path d="m159.9 114.2c-3.8 0-6.9-3.1-6.9-6.9s3.1-6.9 6.9-6.9 6.9 3.1 6.9 6.9-3.1 6.9-6.9 6.9z"/>
			<path d="m139.4 113.4c-3.4 0-6.1-2.7-6.1-6.1s2.7-6.1 6.1-6.1 6.1 2.7 6.1 6.1-2.7 6.1-6.1 6.1z"/>
			<circle cx="118.9" cy="107.3" r="5.4"/>
			<path d="m98.4 111.9c-2.5 0-4.6-2.1-4.6-4.6s2.1-4.6 4.6-4.6 4.6 2.1 4.6 4.6c0 2.6-2.1 4.6-4.6 4.6z"/>
			<path d="m77.9 111.2c-2.1 0-3.8-1.7-3.8-3.8s1.7-3.8 3.8-3.8 3.8 1.7 3.8 3.8-1.7 3.8-3.8 3.8z"/>
			<path d="m57.3 110.4c-1.7 0-3.1-1.4-3.1-3.1s1.4-3.1 3.1-3.1 3.1 1.4 3.1 3.1-1.4 3.1-3.1 3.1z"/>
			<path d="m36.8 109.6c-1.3 0-2.3-1-2.3-2.3s1-2.3 2.3-2.3 2.3 1 2.3 2.3c0.1 1.3-1 2.3-2.3 2.3z"/>
			<circle cx="16.3" cy="107.3" r="1.6"/>
			<circle cx="180.4" cy="130.3" r="7.7"/>
			<path d="m159.9 137.2c-3.8 0-6.9-3.1-6.9-6.9s3.1-6.9 6.9-6.9 6.9 3.1 6.9 6.9-3.1 6.9-6.9 6.9z"/>
			<ellipse transform="matrix(.3862 -.9224 .9224 .3862 -34.62 208.52)" cx="139.4" cy="130.3" rx="6.1" ry="6.1"/>
			<circle cx="118.9" cy="130.3" r="5.4"/>
			<path d="m98.4 134.9c-2.5 0-4.6-2.1-4.6-4.6s2.1-4.6 4.6-4.6 4.6 2.1 4.6 4.6-2.1 4.6-4.6 4.6z"/>
			<path d="m77.9 134.1c-2.1 0-3.8-1.7-3.8-3.8s1.7-3.8 3.8-3.8 3.8 1.7 3.8 3.8-1.7 3.8-3.8 3.8z"/>
			<path d="m57.3 133.4c-1.7 0-3.1-1.4-3.1-3.1s1.4-3.1 3.1-3.1 3.1 1.4 3.1 3.1-1.4 3.1-3.1 3.1z"/>
			<path d="m36.8 132.6c-1.3 0-2.3-1-2.3-2.3s1-2.3 2.3-2.3 2.3 1 2.3 2.3-1 2.3-2.3 2.3z"/>
			<circle cx="16.3" cy="130.3" r="1.6"/>
			<circle cx="180.4" cy="153.2" r="7.7"/>
			<path d="m159.9 160.1c-3.8 0-6.9-3.1-6.9-6.9s3.1-6.9 6.9-6.9 6.9 3.1 6.9 6.9-3.1 6.9-6.9 6.9z"/>
			<ellipse transform="matrix(.3862 -.9224 .9224 .3862 -55.794 222.61)" cx="139.4" cy="153.2" rx="6.1" ry="6.1"/>
			<circle cx="118.9" cy="153.2" r="5.4"/>
			<path d="m98.4 157.8c-2.5 0-4.6-2.1-4.6-4.6s2.1-4.6 4.6-4.6 4.6 2.1 4.6 4.6c0 2.6-2.1 4.6-4.6 4.6z"/>
			<circle cx="77.9" cy="153.2" r="3.8"/>
			<path d="m57.3 156.3c-1.7 0-3.1-1.4-3.1-3.1s1.4-3.1 3.1-3.1 3.1 1.4 3.1 3.1-1.4 3.1-3.1 3.1z"/>
			<path d="m36.8 155.5c-1.3 0-2.3-1-2.3-2.3s1-2.3 2.3-2.3 2.3 1 2.3 2.3-1 2.3-2.3 2.3z"/>
			<circle cx="16.3" cy="153.2" r="1.6"/>
			<circle cx="180.4" cy="176.2" r="7.7"/>
			<path d="m159.9 183.1c-3.8 0-6.9-3.1-6.9-6.9s3.1-6.9 6.9-6.9 6.9 3.1 6.9 6.9-3.1 6.9-6.9 6.9z"/>
			<ellipse transform="matrix(.3862 -.9224 .9224 .3862 -76.968 236.7)" cx="139.4" cy="176.2" rx="6.1" ry="6.1"/>
			<circle cx="118.9" cy="176.2" r="5.4"/>
			<path d="m98.4 180.8c-2.5 0-4.6-2.1-4.6-4.6s2.1-4.6 4.6-4.6 4.6 2.1 4.6 4.6-2.1 4.6-4.6 4.6z"/>
			<path d="m77.9 180c-2.1 0-3.8-1.7-3.8-3.8s1.7-3.8 3.8-3.8 3.8 1.7 3.8 3.8-1.7 3.8-3.8 3.8z"/>
			<path d="m57.3 179.3c-1.7 0-3.1-1.4-3.1-3.1s1.4-3.1 3.1-3.1 3.1 1.4 3.1 3.1-1.4 3.1-3.1 3.1z"/>
			<path d="m36.8 178.5c-1.3 0-2.3-1-2.3-2.3s1-2.3 2.3-2.3 2.3 1 2.3 2.3-1 2.3-2.3 2.3z"/>
			<circle cx="16.3" cy="176.2" r="1.6"/>
		</svg>